<?xml version="1.0" encoding="UTF-8"?>
<svg xmlns="http://www.w3.org/2000/svg" id="Layer_2" width="40" height="40" data-name="Layer 2" viewBox="0 0 40 40.01">
  <defs>
    <style>
      .cls-1 {
        fill: #131313;
        stroke-width: 0px;
      }
    </style>
  </defs>
  <g id="Layer_1-2" data-name="Layer 1">
    <path class="cls-1" d="m36.89,0H9.69c-1.72,0-3.11,1.4-3.11,3.11v20.01h-3.48c-1.71,0-3.1,1.39-3.1,3.11v10.67c0,1.72,1.39,3.11,3.1,3.11h10.67c1.72,0,3.11-1.39,3.11-3.11v-3.47h20.01c1.71,0,3.11-1.39,3.11-3.11V3.11c0-1.71-1.4-3.11-3.11-3.11ZM15.63,36.9c0,1.03-.83,1.86-1.86,1.86H3.1c-1.02,0-1.85-.83-1.85-1.86v-10.67c0-1.03.83-1.86,1.85-1.86h10.67c1.03,0,1.86.83,1.86,1.86v10.67Zm23.12-6.58c0,1.03-.84,1.86-1.86,1.86h-20.01v-5.95c0-.64-.19-1.22-.51-1.71L34.2,6.69v3.2c0,.35.28.63.62.63s.63-.28.63-.63v-4.71c0-.34-.28-.63-.63-.63h-4.71c-.35,0-.63.28-.63.63s.28.62.63.62h3.2L15.48,23.63c-.49-.32-1.07-.51-1.71-.51h-5.94V3.11c0-1.02.83-1.86,1.86-1.86h27.2c1.02,0,1.86.84,1.86,1.86v27.21Z"></path>
  </g>
</svg>
