<?xml version="1.0" encoding="UTF-8"?>
<svg xmlns="http://www.w3.org/2000/svg" width="32" height="32" viewBox="0 0 32 32" fill="none">
  <g clip-path="url(#clip0_2924_112301)">
    <path d="M13.3403 2.13867C7.15703 2.13867 2.14453 7.15117 2.14453 13.3344C2.14453 19.5177 7.15703 24.5302 13.3403 24.5302C19.5235 24.5302 24.536 19.5177 24.536 13.3344C24.5293 7.15397 19.5207 2.1454 13.3403 2.13867ZM13.3403 3.20493C16.6334 3.20753 19.7194 4.81252 21.6123 7.5073L20.2795 8.84013C19.9552 8.64387 19.5839 8.53885 19.2047 8.53625C18.027 8.53625 17.0722 9.49102 17.0722 10.6688C17.0741 11.0483 17.1785 11.4202 17.3745 11.7452L13.8835 15.2361C13.2225 14.8331 12.3918 14.8331 11.7308 15.2361L9.30608 12.8114C9.50207 12.4865 9.6065 12.1146 9.60837 11.735C9.60983 10.5596 8.6582 9.60557 7.48277 9.60411C6.51068 9.60291 5.66133 10.2605 5.41902 11.2019H3.44111C4.45052 6.54054 8.57089 3.21193 13.3403 3.20493ZM20.271 10.6688C20.271 11.2577 19.7936 11.735 19.2047 11.735C18.6158 11.735 18.1385 11.2577 18.1385 10.6688C18.1385 10.0799 18.6158 9.60251 19.2047 9.60251C19.7936 9.60251 20.271 10.0799 20.271 10.6688ZM13.8734 17.0663C13.8734 17.6553 13.3961 18.1326 12.8072 18.1326C12.2182 18.1326 11.7409 17.6553 11.7409 17.0663C11.7409 16.4774 12.2182 16.0001 12.8072 16.0001C13.3961 16.0001 13.8734 16.4774 13.8734 17.0663ZM8.54211 11.735C8.54211 12.3239 8.06475 12.8013 7.47584 12.8013C6.88693 12.8013 6.40958 12.3239 6.40958 11.735C6.40958 11.1461 6.88693 10.6688 7.47584 10.6688C8.06475 10.6688 8.54211 11.1461 8.54211 11.735ZM18.262 22.1915C16.7565 23.0274 15.0624 23.4654 13.3403 23.4639C7.74974 23.4677 3.21459 18.9388 3.21079 13.3482C3.21053 12.9874 3.22959 12.6268 3.26784 12.2681H5.41902C5.6614 13.2067 6.50641 13.8638 7.47584 13.8675C7.85537 13.8656 8.22729 13.7612 8.55224 13.5652L10.9769 15.9899C10.7809 16.3148 10.6765 16.6868 10.6746 17.0663C10.6746 18.244 11.6294 19.1988 12.8072 19.1988C13.9849 19.1988 14.9397 18.244 14.9397 17.0663C14.9378 16.6868 14.8334 16.3148 14.6374 15.9899L18.1283 12.4989C18.4533 12.6949 18.8252 12.7994 19.2047 12.8012C20.3825 12.8012 21.3373 11.8465 21.3373 10.6687C21.3354 10.2892 21.231 9.91726 21.035 9.59231L22.1972 8.43062C24.9105 13.3173 23.1486 19.4782 18.262 22.1915Z" fill="#131313"></path>
    <path d="M26.6687 5.33888C27.6381 5.33522 28.4831 4.6782 28.7255 3.73949H32V2.67323H28.7255C28.4831 1.73452 27.6381 1.0775 26.6687 1.07383C25.4909 1.07383 24.5361 2.02861 24.5361 3.20636C24.538 3.58588 24.6424 3.95781 24.8384 4.28275L23.9017 5.21946C19.4197 -0.619724 11.0528 -1.71997 5.2136 2.76199C-0.625583 7.24396 -1.72583 15.611 2.75613 21.4502C6.9868 26.9619 14.7419 28.2989 20.5739 24.522L22.1829 26.131L22.9368 26.8848L27.2285 31.1766C28.32 32.2681 30.0896 32.2681 31.1811 31.1766C32.2726 30.085 32.2726 28.3154 31.1811 27.2239L26.8894 22.9322L26.1355 22.1784L24.5265 20.5694C27.3827 16.17 27.3827 10.5018 24.5265 6.10233L25.5928 5.03606C25.9176 5.23212 26.2893 5.33675 26.6687 5.33888ZM26.6687 2.1401C27.2576 2.1401 27.7349 2.61745 27.7349 3.20636C27.7349 3.79527 27.2576 4.27262 26.6687 4.27262C26.0798 4.27262 25.6024 3.79527 25.6024 3.20636C25.6024 2.61745 26.0798 2.1401 26.6687 2.1401ZM30.4272 27.9778C31.1101 28.6452 31.1225 29.7399 30.455 30.4227C29.7876 31.1055 28.6929 31.118 28.0101 30.4505C28.0007 30.4414 27.9915 30.4321 27.9823 30.4227L23.6906 26.131L26.1355 23.6861L30.4272 27.9778ZM25.3817 22.9322L22.9368 25.3772L21.461 23.9014C21.5362 23.8439 21.6066 23.7804 21.6807 23.7212C21.7548 23.6621 21.8406 23.5912 21.9201 23.5245C22.0368 23.4264 22.152 23.3273 22.265 23.2254C22.3231 23.1721 22.3786 23.1188 22.4356 23.0655C22.6542 22.8608 22.8658 22.6491 23.0706 22.4305C23.1239 22.3735 23.1772 22.318 23.2305 22.2599C23.3323 22.1469 23.4315 22.0318 23.5296 21.915C23.5964 21.8361 23.662 21.7563 23.7263 21.6756C23.785 21.6021 23.8484 21.5317 23.906 21.4565L25.3817 22.9322ZM23.3142 20.4558C23.1463 20.6904 22.973 20.9202 22.7901 21.1414C22.7368 21.2059 22.6798 21.2683 22.6249 21.3318C22.4617 21.5215 22.2933 21.7057 22.1195 21.8841C22.0438 21.9622 21.9668 22.0392 21.8886 22.1149C21.7109 22.2887 21.5268 22.4572 21.3363 22.6203C21.2728 22.6736 21.2105 22.7318 21.146 22.7856C20.9247 22.9685 20.6949 23.1417 20.4604 23.3097C14.9414 27.2525 7.27102 25.9748 3.32818 20.4558C-0.614654 14.9368 0.663061 7.26649 6.18204 3.32365C11.701 -0.619191 19.3714 0.658458 23.3142 6.1775C26.3651 10.448 26.3651 16.1853 23.3142 20.4558Z" fill="#131313"></path>
  </g>
  <defs>
    <clipPath id="clip0_2924_112301">
      <rect width="32" height="32" fill="white"></rect>
    </clipPath>
  </defs>
</svg>
