<?xml version="1.0" encoding="UTF-8"?>
<svg xmlns="http://www.w3.org/2000/svg" id="Layer_2" width="40" height="40" data-name="Layer 2" viewBox="0 0 40 40">
  <defs>
    <style>
      .cls-1 {
        fill: #131313;
        stroke-width: 0px;
      }
    </style>
  </defs>
  <g id="Layer_1-2" data-name="Layer 1">
    <path class="cls-1" d="m40,25.33c0-.57-.36-1.07-.9-1.25l-6.74-2.41,6.75-2.41c.69-.23,1.07-.98.83-1.67-.13-.39-.44-.7-.83-.83l-10.47-3.75c.02-.07.04-.13.06-.2l1.23-.38c.39-.12.68-.46.71-.87.03-.29.04-.59.04-.88s-.01-.59-.04-.88c-.04-.41-.32-.75-.71-.87l-1.23-.38c-.21-.88-.56-1.72-1.04-2.5l.6-1.13c.2-.36.15-.81-.11-1.12-.19-.22-.39-.44-.6-.65-.21-.21-.43-.41-.65-.6-.32-.26-.76-.31-1.12-.11l-1.14.61c-.77-.47-1.61-.82-2.49-1.04l-.38-1.23c-.12-.39-.46-.67-.87-.71-.59-.05-1.18-.05-1.77,0-.41.04-.75.32-.87.71l-.38,1.23c-.88.22-1.72.57-2.5,1.04l-1.14-.6c-.36-.2-.81-.15-1.12.11-.22.19-.44.39-.65.6s-.41.43-.6.65c-.26.32-.31.76-.11,1.12l.61,1.14c-.47.77-.82,1.62-1.03,2.49l-1.23.38c-.39.12-.68.46-.71.87-.03.29-.04.59-.04.88s.01.59.04.88c.04.41.32.76.71.87l1.23.38c.02.07.04.13.06.2L.9,16.75c-.69.23-1.07.98-.83,1.67.13.39.44.7.83.83l6.75,2.41-6.75,2.41c-.69.23-1.07.98-.83,1.68.13.39.44.7.83.83l5.81,2.08-5.81,2.08c-.69.23-1.07.98-.83,1.68.13.39.44.7.83.83l18.62,6.66c.31.11.65.11.96,0l18.62-6.66c.69-.23,1.07-.98.83-1.68-.13-.39-.44-.7-.83-.83l-5.81-2.08,5.81-2.08c.54-.18.9-.69.9-1.25ZM10.68,11.21c-.01-.18-.02-.36-.02-.54s0-.36.02-.54l1.39-.43c.24-.07.41-.27.46-.51.19-.98.58-1.92,1.14-2.75.14-.2.15-.47.03-.68l-.69-1.29c.12-.13.24-.27.37-.4s.26-.25.4-.37l1.29.69c.22.12.48.1.68-.04.83-.56,1.76-.95,2.75-1.15.24-.05.44-.22.51-.46l.43-1.39c.36-.02.73-.02,1.09,0l.43,1.39c.07.23.27.41.51.46.98.19,1.92.58,2.75,1.14.2.14.47.15.68.04l1.29-.68c.13.12.27.24.4.37s.25.26.37.4l-.68,1.29c-.12.22-.1.48.03.69.56.83.95,1.77,1.14,2.75.05.24.22.44.46.51l1.39.43c.01.18.02.36.02.54s0,.36-.02.54l-1.39.43c-.24.07-.41.27-.46.51-.19.98-.58,1.92-1.14,2.75-.14.2-.15.47-.03.68l.68,1.29c-.12.13-.24.27-.37.4s-.26.25-.4.37l-1.29-.69c-.22-.12-.48-.1-.68.04-.83.56-1.77.95-2.75,1.14-.24.05-.44.22-.51.46l-.43,1.39c-.36.02-.73.02-1.09,0l-.43-1.39c-.07-.23-.27-.41-.51-.46-.98-.19-1.92-.58-2.75-1.14-.2-.14-.47-.15-.68-.03l-1.29.68c-.13-.12-.27-.24-.4-.37s-.25-.26-.37-.4l.69-1.29c.12-.22.1-.48-.03-.69-.56-.83-.95-1.77-1.14-2.75-.05-.24-.22-.44-.46-.51l-1.39-.42Zm1.13,3.05c.16.36.34.71.54,1.04l-.6,1.13c-.2.36-.15.81.11,1.12.19.22.39.44.6.65.21.21.43.41.65.6.32.26.76.31,1.12.11l1.14-.61c.77.47,1.61.82,2.49,1.04l.38,1.23c.12.39.46.67.87.71.29.03.59.04.88.04s.59-.01.88-.04c.41-.04.75-.32.87-.71l.38-1.23c.88-.22,1.72-.57,2.5-1.04l1.14.6c.36.2.81.15,1.12-.11.22-.19.44-.39.65-.6s.41-.43.6-.65c.26-.32.31-.76.11-1.12l-.61-1.14c.2-.33.38-.68.54-1.04l10.46,3.75-18.68,6.66L1.35,18l10.46-3.74Zm26.83,17.74l-18.68,6.66L1.35,32l7.34-2.63,10.83,3.87c.31.11.65.11.96,0l10.83-3.87,7.34,2.63Zm-18.68,0L1.35,25.33l8.28-2.96,9.89,3.54c.31.11.65.11.96,0l9.9-3.54,8.28,2.96-18.68,6.66Z"></path>
  </g>
</svg>
