<?xml version="1.0" encoding="UTF-8"?>
<svg xmlns="http://www.w3.org/2000/svg" id="Layer_2" width="40" height="40" data-name="Layer 2" viewBox="0 0 40 40">
  <defs>
    <style>
      .cls-1 {
        fill: #131313;
        stroke-width: 0px;
      }
    </style>
  </defs>
  <g id="Layer_1-2" data-name="Layer 1">
    <g>
      <path class="cls-1" d="m20,15.12c-.54,0-1.07.16-1.52.46-.45.3-.8.73-1.01,1.23-.21.5-.26,1.05-.16,1.58.11.53.37,1.02.75,1.4.38.38.87.64,1.4.75.53.11,1.08.05,1.58-.16.5-.21.93-.56,1.23-1.01.3-.45.46-.98.46-1.52,0-.73-.29-1.42-.8-1.94-.51-.51-1.21-.8-1.94-.8Zm1.09,3.82c-.29.29-.68.45-1.09.45-.3,0-.6-.09-.85-.26-.25-.17-.45-.41-.57-.69-.12-.28-.15-.59-.09-.89.06-.3.21-.57.42-.79.21-.21.49-.36.79-.42.3-.06.61-.03.89.09.28.12.52.31.69.57.17.25.26.55.26.85,0,.41-.16.8-.45,1.09Z"></path>
      <path class="cls-1" d="m39.65,18.38c-.31-.67-.8-1.24-1.43-1.64-.62-.4-1.35-.61-2.08-.61-.92,0-1.81.33-2.51.93-.7.6-1.16,1.43-1.31,2.34h-4.49c-.13-1.66-.78-3.24-1.87-4.5l3.18-3.18c.75.54,1.66.8,2.58.73.92-.07,1.78-.47,2.43-1.12.52-.52.88-1.18,1.04-1.91.16-.72.11-1.47-.15-2.17-.26-.69-.71-1.3-1.29-1.74-.59-.45-1.29-.71-2.03-.77-.74-.06-1.47.1-2.13.45-.65.35-1.19.88-1.55,1.52-.36.65-.53,1.38-.48,2.12.04.74.3,1.45.73,2.05l-3.18,3.18c-1.26-1.09-2.84-1.74-4.5-1.87v-4.49c.96-.15,1.83-.66,2.43-1.42.6-.76.9-1.73.82-2.7-.08-.97-.52-1.88-1.23-2.54-.71-.66-1.65-1.03-2.63-1.03s-1.91.37-2.63,1.03c-.71.66-1.15,1.57-1.23,2.54-.08.97.22,1.93.82,2.7s1.47,1.27,2.43,1.42v4.49c-1.66.13-3.24.78-4.5,1.87l-3.18-3.18c.57-.79.83-1.76.71-2.72-.11-.96-.59-1.85-1.33-2.48-.74-.63-1.69-.96-2.66-.92-.97.04-1.89.44-2.58,1.13-.69.69-1.09,1.61-1.13,2.58-.04.97.29,1.92.92,2.66s1.52,1.21,2.48,1.33c.96.11,1.94-.14,2.72-.71l3.18,3.18c-1.09,1.26-1.74,2.84-1.87,4.5h-4.49c-.15-.96-.66-1.83-1.42-2.43-.76-.6-1.73-.9-2.7-.82-.97.08-1.88.51-2.54,1.23-.66.71-1.03,1.65-1.03,2.63s.37,1.91,1.03,2.63,1.57,1.15,2.54,1.23c.97.08,1.93-.22,2.7-.82.76-.6,1.27-1.47,1.42-2.43h4.49c.13,1.66.78,3.24,1.87,4.5l-3.18,3.18c-.79-.57-1.76-.83-2.73-.71-.97.11-1.85.59-2.49,1.33-.63.74-.96,1.69-.92,2.66.04.97.44,1.9,1.13,2.58s1.61,1.09,2.58,1.13c.97.04,1.92-.29,2.66-.92.74-.63,1.21-1.52,1.33-2.49.11-.97-.14-1.94-.71-2.73l3.18-3.18c1.26,1.09,2.84,1.74,4.5,1.87v4.49c-.96.15-1.83.66-2.43,1.42-.6.76-.9,1.73-.82,2.7.08.97.52,1.88,1.23,2.54.71.66,1.65,1.03,2.63,1.03s1.91-.37,2.63-1.03c.71-.66,1.15-1.57,1.23-2.54.08-.97-.22-1.93-.82-2.7-.6-.76-1.47-1.27-2.43-1.42v-4.49c1.66-.13,3.24-.78,4.5-1.87l3.18,3.18c-.54.75-.8,1.66-.73,2.58.07.92.47,1.78,1.12,2.43.52.52,1.18.88,1.91,1.04.72.16,1.47.11,2.17-.15.69-.26,1.3-.71,1.74-1.29.45-.59.71-1.29.77-2.03.06-.74-.1-1.47-.45-2.13-.35-.65-.88-1.19-1.52-1.55-.65-.36-1.38-.53-2.12-.48-.74.04-1.45.3-2.05.73l-3.18-3.18c1.09-1.26,1.74-2.84,1.87-4.5h4.49c.11.73.44,1.41.93,1.96s1.13.95,1.84,1.15c.71.2,1.47.19,2.17-.02.71-.21,1.34-.63,1.82-1.19.48-.56.79-1.25.89-1.98.1-.73,0-1.48-.32-2.15Zm-10.12-11.68c.37-.37.85-.63,1.36-.73.52-.1,1.05-.05,1.54.15.49.2.9.54,1.2.98.29.44.45.95.45,1.48s-.16,1.04-.45,1.48c-.29.44-.71.78-1.2.98-.49.2-1.02.25-1.54.15-.52-.1-.99-.36-1.36-.73-.5-.5-.78-1.18-.78-1.88s.28-1.38.78-1.88Zm-18.32,2.4c-.1.52-.36.99-.73,1.36-.5.5-1.18.78-1.88.78s-1.38-.28-1.88-.78c-.37-.37-.63-.85-.73-1.36-.1-.52-.05-1.05.15-1.54.2-.49.54-.9.98-1.2.44-.29.95-.45,1.48-.45s1.04.16,1.48.45c.44.29.78.71.98,1.2.2.49.25,1.02.15,1.54Zm-5.45,12.77c-.5.5-1.18.78-1.89.78-.53,0-1.04-.16-1.48-.45-.44-.29-.78-.71-.98-1.2s-.25-1.02-.15-1.54c.1-.52.36-.99.73-1.36.37-.37.85-.63,1.36-.73s1.05-.05,1.54.15c.49.2.9.54,1.2.98s.45.95.45,1.48c0,.71-.28,1.38-.78,1.88Zm4.73,11.41h0c-.37.38-.85.63-1.36.73-.52.1-1.05.05-1.54-.15-.49-.2-.9-.54-1.2-.98-.29-.44-.45-.95-.45-1.48s.16-1.04.45-1.48c.29-.44.71-.78,1.2-.98.49-.2,1.02-.25,1.54-.15.52.1.99.36,1.36.73.5.5.78,1.18.78,1.88s-.28,1.38-.78,1.88Zm18.32-2.4c.1-.52.36-.99.73-1.36.5-.5,1.18-.78,1.88-.78.71,0,1.38.28,1.88.78h0c.37.38.63.85.73,1.37.1.52.05,1.05-.15,1.54-.2.49-.54.9-.98,1.2-.44.29-.95.45-1.48.45s-1.04-.16-1.48-.45c-.44-.29-.78-.71-.98-1.2-.2-.49-.25-1.02-.15-1.54ZM18.11,5.75c-.5-.5-.78-1.18-.78-1.89h0c0-.53.16-1.04.45-1.48s.71-.78,1.2-.98,1.02-.25,1.54-.15c.52.1.99.36,1.36.73.37.37.63.85.73,1.37.1.52.05,1.05-.15,1.54-.2.49-.54.9-.98,1.19s-.95.45-1.48.45c-.71,0-1.38-.28-1.88-.78Zm3.77,28.5c.5.5.78,1.18.78,1.89h0c0,.53-.16,1.04-.45,1.48-.29.44-.71.78-1.2.98-.49.2-1.02.25-1.54.15s-.99-.36-1.36-.73c-.37-.37-.62-.85-.73-1.36-.1-.52-.05-1.05.15-1.54.2-.49.54-.9.98-1.19.44-.29.95-.45,1.48-.45.71,0,1.38.28,1.88.78Zm.75-8.15c-.83.36-1.73.54-2.63.54-.91,0-1.8-.19-2.63-.54-.83-.36-1.58-.89-2.2-1.55.58-.83,1.36-1.5,2.27-1.95.8.4,1.67.61,2.57.61.89,0,1.77-.21,2.57-.61.91.44,1.69,1.11,2.27,1.95-.62.66-1.37,1.19-2.2,1.55Zm2.96-2.53c-.74-.95-1.71-1.7-2.82-2.18-.09-.04-.18-.05-.27-.05-.09,0-.18.03-.26.08-.68.39-1.46.6-2.24.6-.79,0-1.56-.21-2.24-.6-.08-.05-.17-.07-.26-.08-.09,0-.19.01-.27.05-1.11.48-2.08,1.23-2.82,2.18-.64-1-1-2.16-1.04-3.35-.04-1.19.24-2.37.81-3.41.57-1.04,1.42-1.92,2.44-2.52,1.02-.61,2.19-.93,3.39-.93s2.36.32,3.39.93c1.02.61,1.87,1.48,2.44,2.52.57,1.04.85,2.22.81,3.41-.04,1.19-.4,2.35-1.04,3.35Zm12.42-1.69c-.5.5-1.18.78-1.88.78h0c-.53,0-1.04-.15-1.48-.45-.44-.29-.78-.71-.98-1.2-.2-.49-.25-1.02-.15-1.54.1-.52.36-.99.73-1.36.37-.37.85-.63,1.36-.73.52-.1,1.05-.05,1.54.15s.9.54,1.2.98c.29.44.45.95.45,1.48,0,.71-.28,1.38-.78,1.88Z"></path>
    </g>
  </g>
</svg>
