<?xml version="1.0" encoding="UTF-8"?>
<svg xmlns="http://www.w3.org/2000/svg" id="Layer_2" width="40" height="40" data-name="Layer 2" viewBox="0 0 40 40">
  <defs>
    <style>
      .cls-1 {
        fill: #131313;
        stroke-width: 0px;
      }
    </style>
  </defs>
  <g id="Layer_1-2" data-name="Layer 1">
    <path class="cls-1" d="m31.73,32.25c-3.27,3.27-7.62,5.07-12.25,5.07H.62c-.35,0-.62-.28-.62-.62s.28-.62.62-.62h18.86c8.86,0,16.07-7.21,16.07-16.07,0-8.13-6.19-14.96-14.1-15.95l1.85,1.44c.27.21.32.61.11.88-.12.16-.31.24-.49.24-.13,0-.27-.04-.38-.13l-3.44-2.68c-.15-.12-.24-.3-.24-.49s.09-.37.24-.49L22.54.13c.27-.21.66-.16.88.11.21.27.16.66-.11.88l-2.11,1.65c4.04.39,7.78,2.18,10.65,5.1,3.2,3.26,4.96,7.57,4.96,12.13,0,4.63-1.8,8.97-5.07,12.24Zm-23.28,1.1c.12.1.26.14.4.14.18,0,.36-.08.48-.23.22-.27.18-.66-.08-.88-3.7-3.07-5.83-7.58-5.83-12.38,0-7.29,4.91-13.68,11.95-15.54.33-.09.53-.43.44-.76-.09-.33-.43-.53-.76-.44C7.47,5.26,2.17,12.15,2.17,20c0,5.18,2.29,10.04,6.28,13.35h0Zm31.3,2.85l-3.44-2.68c-.27-.21-.66-.16-.88.11-.21.27-.16.66.11.88l2,1.57h-6.87c-.35,0-.62.28-.62.62s.28.62.62.62h6.87l-2,1.57c-.27.21-.32.61-.11.88.12.16.31.24.49.24.13,0,.27-.04.38-.13l3.44-2.68c.15-.12.24-.3.24-.49s-.09-.37-.24-.49h0ZM13.32,20c0-3.4,2.77-6.17,6.17-6.17s6.17,2.77,6.17,6.17-2.77,6.17-6.17,6.17c-3.4,0-6.17-2.77-6.17-6.17Zm1.25,0c0,2.71,2.21,4.92,4.92,4.92s4.92-2.21,4.92-4.92-2.21-4.92-4.92-4.92c-2.71,0-4.92,2.21-4.92,4.92Zm-.49-8.69c.95-.6,1.99-1.02,3.08-1.28l.61-1.58c.09-.24.32-.4.58-.4h2.26c.26,0,.49.16.58.4l.61,1.58c1.09.25,2.13.68,3.08,1.28l1.55-.69c.24-.1.51-.05.7.13l1.6,1.6c.18.18.23.46.13.7l-.69,1.55c.6.95,1.02,1.99,1.28,3.08l1.58.61c.24.09.4.32.4.58v2.26c0,.26-.16.49-.4.58l-1.58.61c-.25,1.09-.68,2.13-1.28,3.08l.69,1.55c.1.24.05.51-.13.7l-1.6,1.6c-.18.18-.46.23-.7.13l-1.55-.69c-.95.6-1.99,1.02-3.08,1.28l-.61,1.58c-.09.24-.32.4-.58.4h-2.26c-.26,0-.49-.16-.58-.4l-.61-1.58c-1.09-.25-2.13-.68-3.08-1.28l-1.55.69c-.24.1-.51.05-.7-.13l-1.6-1.6c-.18-.18-.23-.46-.13-.7l.69-1.55c-.6-.95-1.02-1.99-1.28-3.08l-1.58-.61c-.24-.09-.4-.32-.4-.58v-2.26c0-.26.16-.49.4-.58l1.58-.61c.25-1.09.68-2.13,1.28-3.08l-.69-1.55c-.1-.24-.05-.51.13-.7l1.6-1.6c.18-.18.46-.23.7-.13l1.55.69Zm-.2,1.28l-1.47-.65-.99.99.65,1.47c.09.2.07.42-.05.6-.67.99-1.12,2.09-1.35,3.26-.04.21-.19.39-.39.46l-1.5.58v1.41l1.5.58c.2.08.35.25.39.46.23,1.17.68,2.27,1.35,3.26.12.18.14.41.05.6l-.65,1.47.99.99,1.47-.65c.2-.09.42-.07.6.05.99.67,2.09,1.12,3.26,1.35.21.04.39.19.46.39l.58,1.5h1.41l.58-1.5c.08-.2.25-.35.46-.39,1.17-.23,2.27-.68,3.26-1.35.18-.12.41-.14.6-.05l1.47.65.99-.99-.65-1.47c-.09-.2-.07-.42.05-.6.67-.99,1.12-2.09,1.35-3.26.04-.21.19-.39.39-.46l1.5-.58v-1.41l-1.5-.58c-.2-.08-.35-.25-.39-.46-.23-1.17-.68-2.27-1.35-3.26-.12-.18-.14-.41-.05-.6l.65-1.47-.99-.99-1.47.65c-.2.09-.42.07-.6-.05-.99-.67-2.09-1.12-3.26-1.35-.21-.04-.39-.19-.46-.39l-.58-1.5h-1.41l-.58,1.5c-.08.2-.25.35-.46.39-1.17.23-2.27.68-3.26,1.35-.18.12-.41.14-.6.05Z"></path>
  </g>
</svg>
