<?xml version="1.0" encoding="UTF-8"?>
<svg xmlns="http://www.w3.org/2000/svg" id="Layer_2" width="40" height="40" data-name="Layer 2" viewBox="0 0 41.21 35.26">
  <defs>
    <style>
      .cls-1 {
        fill: #131313;
        stroke-width: 0px;
      }
    </style>
  </defs>
  <g id="Layer_1-2" data-name="Layer 1">
    <g>
      <path class="cls-1" d="m27.49,4.58c-1.18,0-2.29.46-3.13,1.3s-1.29,1.95-1.29,3.13.46,2.3,1.29,3.13,1.95,1.3,3.13,1.3,2.29-.46,3.13-1.3c.83-.83,1.29-1.95,1.29-3.13,0-1.18-.46-2.3-1.29-3.13s-1.95-1.3-3.13-1.3Zm2.28,6.7c-1.21,1.22-3.34,1.22-4.55,0-.61-.61-.94-1.42-.94-2.28s.33-1.67.94-2.28c.61-.61,1.42-.94,2.28-.94s1.67.33,2.28.94.94,1.42.94,2.28-.33,1.67-.94,2.28Z"></path>
      <path class="cls-1" d="m40.6,19.18l-2.92-2.92V1.84c0-1.01-.83-1.84-1.84-1.84H4.69c-1.01,0-1.84.83-1.84,1.84v18.95c-1.74,1.51-2.85,3.74-2.85,6.22,0,4.55,3.7,8.25,8.25,8.25,2.76,0,5.26-1.39,6.77-3.55h20.82c1.01,0,1.84-.83,1.84-1.84v-7.75c.4.4.93.6,1.46.6s1.06-.2,1.46-.61.61-.91.61-1.46-.21-1.07-.61-1.46Zm-4.83-4.83c-.22-.22-.55-.28-.85-.2l-1.78-1.78c.36-.6.63-1.25.78-1.94.07-.33-.13-.65-.46-.72-.32-.07-.65.13-.72.46-.16.72-.47,1.39-.9,1.98-.17.23-.35.45-.55.65-2.1,2.1-5.51,2.1-7.61,0s-2.1-5.51,0-7.61,5.51-2.1,7.61,0c.68.68,1.16,1.52,1.4,2.44.08.32.41.52.74.43.32-.08.52-.41.43-.74-.12-.48-.31-.94-.54-1.38h3.15v9.09l-.71-.71Zm-3.62-.69c.09-.09.19-.19.28-.29l1.56,1.56-.57.57-1.56-1.56c.1-.09.2-.18.29-.28ZM4.05,1.84c0-.35.28-.63.63-.63h31.16c.35,0,.63.28.63.63v2.92h-3.96c-.12-.14-.23-.28-.36-.41-1.24-1.24-2.9-1.93-4.66-1.93s-3.41.69-4.66,1.93c-.13.13-.25.27-.37.41H4.05V1.84Zm32.42,28.03c0,.35-.28.63-.63.63H15.71c.28-.59.49-1.23.62-1.89.06-.33-.15-.64-.48-.71-.32-.06-.64.15-.71.48-.65,3.29-3.55,5.67-6.91,5.67-3.88,0-7.04-3.16-7.04-7.04s3.16-7.04,7.04-7.04c3.42,0,6.34,2.44,6.93,5.81.06.33.38.54.7.49.33-.06.55-.37.49-.7-.25-1.39-.84-2.65-1.67-3.7,2-.98,3.35-2.99,3.46-5.24,0-.23-.08-.46-.24-.63-.16-.17-.38-.26-.61-.26h-4.7v-4.7c0-.23-.1-.46-.26-.62-.17-.16-.38-.25-.63-.23-1.65.08-3.23.84-4.33,2.1-1.11,1.27-1.65,2.89-1.51,4.56.06.73.26,1.44.57,2.1-.86.19-1.66.52-2.39.96V5.96h17.6c-.48.93-.74,1.96-.74,3.04,0,1.76.69,3.41,1.93,4.66s2.9,1.93,4.66,1.93c1.21,0,2.36-.33,3.37-.94l1.77,1.77c-.09.29-.03.62.2.85l3.64,3.64v8.96ZM7.08,16.76c-.11-1.34.32-2.64,1.22-3.66.8-.92,1.92-1.51,3.11-1.66v4.91c0,.33.27.6.6.6h4.91c-.22,1.78-1.42,3.31-3.09,3.98-1.48-1.36-3.44-2.18-5.58-2.18-.18,0-.35.02-.53.03-.36-.62-.58-1.31-.64-2.02Zm32.67,4.49c-.33.34-.88.34-1.22,0l-1.02-1.02-3.56-3.56,1.22-1.22,4.58,4.58c.16.16.25.38.25.61s-.09.45-.25.61Z"></path>
      <path class="cls-1" d="m20.45,14.17c.16-.17.25-.4.23-.63-.15-3.14-2.72-5.72-5.86-5.86-.22-.01-.46.07-.63.23-.17.16-.26.38-.26.62v5.05c0,.47.38.85.85.85h5.05c.23,0,.46-.1.62-.26Zm-5.31-.94v-4.31c2.23.28,4.03,2.08,4.31,4.31h-4.31Z"></path>
      <path class="cls-1" d="m32.17,17.34c0-.33-.27-.6-.6-.6s-.6.27-.6.6v3.96h-1.54v-2.59c0-.33-.27-.6-.6-.6s-.6.27-.6.6v2.59h-1.54v-4.04c0-.33-.27-.6-.6-.6s-.6.27-.6.6v4.04h-1.54v-5.46c0-.33-.27-.6-.6-.6s-.6.27-.6.6v5.46h-1.54v-2.67c0-.33-.27-.6-.6-.6s-.6.27-.6.6v2.67h-1.39c-.33,0-.6.27-.6.6s.27.6.6.6h14.96c.33,0,.6-.27.6-.6s-.27-.6-.6-.6h-1.39v-3.96Z"></path>
      <path class="cls-1" d="m7.51,24.24c0-.99-.8-1.79-1.79-1.79s-1.79.8-1.79,1.79.8,1.79,1.79,1.79,1.79-.8,1.79-1.79Zm-1.79.58c-.32,0-.58-.26-.58-.58s.26-.58.58-.58.58.26.58.58-.26.58-.58.58Z"></path>
      <path class="cls-1" d="m10.78,27.99c-.99,0-1.79.8-1.79,1.79s.8,1.79,1.79,1.79,1.79-.8,1.79-1.79-.8-1.79-1.79-1.79Zm0,2.37c-.32,0-.58-.26-.58-.58s.26-.58.58-.58.58.26.58.58-.26.58-.58.58Z"></path>
      <path class="cls-1" d="m10.4,22.51c-.3-.15-.66-.02-.8.28l-3.79,7.9c-.14.3-.02.66.28.8.08.04.17.06.26.06.22,0,.44-.13.54-.34l3.79-7.9c.14-.3.02-.66-.28-.8Z"></path>
      <path class="cls-1" d="m20.72,24.63h-2.11c-.33,0-.6.27-.6.6v2.11c0,.33.27.6.6.6h2.11c.33,0,.6-.27.6-.6v-2.11c0-.33-.27-.6-.6-.6Zm-.6,2.11h-.91v-.91h.91v.91Z"></path>
      <path class="cls-1" d="m33.56,24.63h-10.72c-.33,0-.6.27-.6.6s.27.6.6.6h10.72c.33,0,.6-.27.6-.6s-.27-.6-.6-.6Z"></path>
      <path class="cls-1" d="m33.56,26.74h-10.72c-.33,0-.6.27-.6.6s.27.6.6.6h10.72c.33,0,.6-.27.6-.6s-.27-.6-.6-.6Z"></path>
      <path class="cls-1" d="m5.9,2.62c-.11.12-.17.27-.17.43,0,.08,0,.16.04.23.03.07.08.14.13.2.12.11.27.17.43.17.08,0,.16,0,.23-.04.07-.03.14-.08.19-.13.06-.06.11-.13.14-.2.03-.07.04-.15.04-.23,0-.16-.06-.32-.18-.43-.22-.22-.63-.22-.85,0Z"></path>
      <path class="cls-1" d="m8.53,2.62c-.23-.22-.63-.22-.85,0-.06.06-.1.13-.13.2-.03.07-.05.15-.05.23,0,.16.06.31.18.43.11.11.26.17.42.17s.32-.06.43-.17c.06-.06.1-.13.13-.2s.05-.15.05-.23-.02-.16-.05-.23-.07-.14-.13-.2Z"></path>
      <path class="cls-1" d="m10.38,2.82c-.03-.07-.07-.14-.13-.2-.05-.05-.12-.1-.19-.13-.15-.06-.32-.06-.46,0-.08.03-.14.08-.2.13-.05.06-.1.13-.13.2-.03.07-.05.15-.05.23,0,.16.07.32.18.43.12.11.27.17.43.17s.31-.06.42-.17c.12-.12.18-.27.18-.43,0-.08-.01-.16-.05-.23Z"></path>
    </g>
  </g>
</svg>
